<svg width="90" height="90" viewBox="0 0 90 90" fill="none" xmlns="http://www.w3.org/2000/svg">
<path d="M46.8573 89.904C23.2927 89.904 4.19066 70.8014 4.19066 47.2374C4.19066 23.672 23.2927 4.57066 46.8573 4.57066C70.4213 4.57066 89.524 23.672 89.524 47.2374C89.524 70.8014 70.4213 89.904 46.8573 89.904V89.904ZM27.7167 41.6054V51.632H33.3281V73.3507H45.128V51.632H53.0867L54.116 41.6147H45.128V35.7147C45.128 33.5014 46.5907 32.9814 47.6307 32.9814H53.972V23.248L45.232 23.212C35.532 23.212 33.3281 30.4787 33.3281 35.1173V41.6054H27.7167" fill="#A6B4C0"/>
<path d="M45.128 73.3507H33.3281V51.632H27.7167V41.6054H33.3281V35.1173C33.3281 30.4787 35.532 23.212 45.232 23.212L53.972 23.248V32.9814H47.6307C46.5907 32.9814 45.128 33.5014 45.128 35.7147V41.6147H54.116L53.0867 51.632H45.128V73.3507Z" fill="#A6B4C0"/>
<path d="M85.524 43.2374C85.524 66.8014 66.4213 85.904 42.8573 85.904C19.2927 85.904 0.190659 66.8014 0.190659 43.2374C0.190659 19.672 19.2927 0.570661 42.8573 0.570661C66.4213 0.570661 85.524 19.672 85.524 43.2374" fill="#3049A5"/>
<g filter="url(#filter0_d_3:58)">
<path d="M49.0867 47.632H41.128V69.3507H29.3281V47.632H23.7167V37.6054H29.3281V31.1173C29.3281 26.4773 31.5317 19.212 41.232 19.212L49.972 19.248V28.9814H43.6307C42.5907 28.9814 41.128 29.5014 41.128 31.7147V37.6147H50.116L49.0867 47.632" fill="white"/>
</g>
<defs>
<filter id="filter0_d_3:58" x="19.7167" y="19.212" width="34.3993" height="58.1387" filterUnits="userSpaceOnUse" color-interpolation-filters="sRGB">
<feFlood flood-opacity="0" result="BackgroundImageFix"/>
<feColorMatrix in="SourceAlpha" type="matrix" values="0 0 0 0 0 0 0 0 0 0 0 0 0 0 0 0 0 0 127 0" result="hardAlpha"/>
<feOffset dy="4"/>
<feGaussianBlur stdDeviation="2"/>
<feComposite in2="hardAlpha" operator="out"/>
<feColorMatrix type="matrix" values="0 0 0 0 0 0 0 0 0 0 0 0 0 0 0 0 0 0 0.25 0"/>
<feBlend mode="normal" in2="BackgroundImageFix" result="effect1_dropShadow_3:58"/>
<feBlend mode="normal" in="SourceGraphic" in2="effect1_dropShadow_3:58" result="shape"/>
</filter>
</defs>
</svg>
