<svg width="94" height="91" viewBox="0 0 94 91" fill="none" xmlns="http://www.w3.org/2000/svg">
<path d="M50.6667 88.3333C27.1027 88.3333 8 69.2306 8 45.6666C8 22.1013 27.1027 3 50.6667 3C74.2293 3 93.3334 22.1013 93.3334 45.6666C93.3334 69.2306 74.2293 88.3333 50.6667 88.3333" fill="#A6B4C0"/>
<path d="M89.3333 41.6666C89.3333 65.2306 70.2307 84.3333 46.6667 84.3333C23.102 84.3333 4 65.2306 4 41.6666C4 18.1013 23.102 0 46.6667 0C70 2 86 17.5 89.3333 41.6666Z" fill="white"/>
<g filter="url(#filter0_d_4:71)">
<path fill-rule="evenodd" clip-rule="evenodd" d="M46 0C22.5187 0 4 19.0188 4 42.5C4 61.3063 15.5 76.5 34 82.5C36.8302 83.4179 36.9813 81.9188 36.9813 80.8031C36.9813 79.7938 36.9281 76.4469 36.9281 72.8875C26.25 74.8531 23.4875 70.2844 22.6375 67.8938C22.1594 66.6719 20.0875 62.9 18.2812 61.8906C16.7938 61.0938 14.6687 59.1281 18.2281 59.075C21.575 59.0219 23.9656 62.1563 24.7625 63.4313C28.5875 69.8594 34.6969 68.0531 37.1406 66.9375C37.5125 64.175 38.6281 62.3156 39.85 61.2531C30.3937 60.1906 20.5125 56.525 20.5125 40.2688C20.5125 35.6469 22.1594 31.8219 24.8687 28.8469C24.4437 27.7844 22.9562 23.4281 25.2937 17.5844C25.2937 17.5844 28.8531 16.4688 36.9813 21.9406C40.3813 20.9844 43.9938 20.5063 47.6063 20.5063C51.2188 20.5063 54.8313 20.9844 58.2313 21.9406C66.3594 16.4156 69.9188 17.5844 69.9188 17.5844C72.2563 23.4281 70.7687 27.7844 70.3438 28.8469C73.0531 31.8219 74.7 35.5938 74.7 40.2688C74.7 56.5781 64.7656 60.1906 55.3094 61.2531C56.85 62.5813 58.1781 65.1313 58.1781 69.1156C58.1781 74.8 58.125 79.3688 58.125 80.8031C58.125 81.9188 58.875 82.425 61 82C77.7875 76.3687 90 61.2531 90 42.5C90 19.0188 69.4813 0 46 0Z" fill="#1B1F23"/>
</g>
<defs>
<filter id="filter0_d_4:71" x="0" y="0" width="94" height="90.7847" filterUnits="userSpaceOnUse" color-interpolation-filters="sRGB">
<feFlood flood-opacity="0" result="BackgroundImageFix"/>
<feColorMatrix in="SourceAlpha" type="matrix" values="0 0 0 0 0 0 0 0 0 0 0 0 0 0 0 0 0 0 127 0" result="hardAlpha"/>
<feOffset dy="4"/>
<feGaussianBlur stdDeviation="2"/>
<feComposite in2="hardAlpha" operator="out"/>
<feColorMatrix type="matrix" values="0 0 0 0 0 0 0 0 0 0 0 0 0 0 0 0 0 0 0.25 0"/>
<feBlend mode="normal" in2="BackgroundImageFix" result="effect1_dropShadow_4:71"/>
<feBlend mode="normal" in="SourceGraphic" in2="effect1_dropShadow_4:71" result="shape"/>
</filter>
</defs>
</svg>
