<svg width="91" height="91" viewBox="0 0 91 91" fill="none" xmlns="http://www.w3.org/2000/svg">
<path d="M47.4266 90.148C23.8613 90.148 4.75998 71.0454 4.75998 47.4814C4.75998 23.916 23.8613 4.81471 47.4266 4.81471C70.9906 4.81471 90.0933 23.916 90.0933 47.4814C90.0933 71.0454 70.9906 90.148 47.4266 90.148Z" fill="#A6B4C0"/>
<path d="M86.0933 43.4814C86.0933 67.0454 66.9906 86.148 43.4266 86.148C19.8613 86.148 0.759979 67.0454 0.759979 43.4814C0.759979 19.9174 19.8613 0.814713 43.4266 0.814713C66.9906 0.814713 86.0933 19.9174 86.0933 43.4814Z" fill="#EF2C39"/>
<g filter="url(#filter0_d_3:59)">
<path d="M33.344 40.5334V47.428H44.7507C44.2907 50.388 41.3027 56.1054 33.344 56.1054C26.4773 56.1054 20.876 50.4174 20.876 43.4067C20.876 36.396 26.4773 30.708 33.344 30.708C37.2507 30.708 39.8653 32.3747 41.36 33.8107L46.8187 28.5533C43.3147 25.2773 38.7747 23.296 33.344 23.296C22.2267 23.296 13.2333 32.288 13.2333 43.4067C13.2333 54.5254 22.2267 63.5173 33.344 63.5173C44.952 63.5173 52.652 55.3587 52.652 43.8653C52.652 42.544 52.5067 41.5387 52.3347 40.5334H33.344" fill="white"/>
</g>
<g filter="url(#filter1_d_3:59)">
<path d="M76.4387 40.5333H70.692V34.788H64.9467V40.5333H59.2013V46.2787H64.9467V52.0253H70.692V46.2787H76.4387V40.5333Z" fill="white"/>
</g>
<defs>
<filter id="filter0_d_3:59" x="9.23334" y="23.296" width="47.4187" height="48.2213" filterUnits="userSpaceOnUse" color-interpolation-filters="sRGB">
<feFlood flood-opacity="0" result="BackgroundImageFix"/>
<feColorMatrix in="SourceAlpha" type="matrix" values="0 0 0 0 0 0 0 0 0 0 0 0 0 0 0 0 0 0 127 0" result="hardAlpha"/>
<feOffset dy="4"/>
<feGaussianBlur stdDeviation="2"/>
<feComposite in2="hardAlpha" operator="out"/>
<feColorMatrix type="matrix" values="0 0 0 0 0 0 0 0 0 0 0 0 0 0 0 0 0 0 0.25 0"/>
<feBlend mode="normal" in2="BackgroundImageFix" result="effect1_dropShadow_3:59"/>
<feBlend mode="normal" in="SourceGraphic" in2="effect1_dropShadow_3:59" result="shape"/>
</filter>
<filter id="filter1_d_3:59" x="55.2013" y="34.788" width="25.2373" height="25.2373" filterUnits="userSpaceOnUse" color-interpolation-filters="sRGB">
<feFlood flood-opacity="0" result="BackgroundImageFix"/>
<feColorMatrix in="SourceAlpha" type="matrix" values="0 0 0 0 0 0 0 0 0 0 0 0 0 0 0 0 0 0 127 0" result="hardAlpha"/>
<feOffset dy="4"/>
<feGaussianBlur stdDeviation="2"/>
<feComposite in2="hardAlpha" operator="out"/>
<feColorMatrix type="matrix" values="0 0 0 0 0 0 0 0 0 0 0 0 0 0 0 0 0 0 0.25 0"/>
<feBlend mode="normal" in2="BackgroundImageFix" result="effect1_dropShadow_3:59"/>
<feBlend mode="normal" in="SourceGraphic" in2="effect1_dropShadow_3:59" result="shape"/>
</filter>
</defs>
</svg>
