<svg width="91" height="91" viewBox="0 0 91 91" fill="none" xmlns="http://www.w3.org/2000/svg">
<path d="M47.4266 90.2107C23.8613 90.2107 4.75998 71.108 4.75998 47.544C4.75998 23.9787 23.8613 4.87735 47.4266 4.87735C70.9906 4.87735 90.0933 23.9787 90.0933 47.544C90.0933 71.108 70.9906 90.2107 47.4266 90.2107Z" fill="#A6B4C0"/>
<path d="M86.0933 43.544C86.0933 67.108 66.9906 86.2107 43.4266 86.2107C19.8613 86.2107 0.759979 67.108 0.759979 43.544C0.759979 19.9787 19.8613 0.87735 43.4266 0.87735C66.9906 0.87735 86.0933 19.9787 86.0933 43.544Z" fill="#21C812"/>
<g filter="url(#filter0_d_3:61)">
<path fill-rule="evenodd" clip-rule="evenodd" d="M44.5787 14.8227C28.7933 14.8227 15.9947 27.6213 15.9947 43.4093C15.9947 48.8093 17.4947 53.86 20.0973 58.1693L14.9373 73.504L30.7627 68.4387C34.8587 70.7027 39.568 71.9947 44.5787 71.9947C60.3693 71.9947 73.1667 59.1947 73.1667 43.4093C73.1667 27.6213 60.3693 14.8227 44.5787 14.8227ZM44.5787 67.2053C39.748 67.2053 35.2453 65.7547 31.488 63.2693L22.3427 66.196L25.316 57.3613C22.4667 53.4373 20.7853 48.6173 20.7853 43.4093C20.7853 30.2853 31.46 19.6107 44.5787 19.6107C57.7013 19.6107 68.376 30.2853 68.376 43.4093C68.376 56.528 57.7013 67.2053 44.5787 67.2053V67.2053ZM57.9827 49.904C57.2667 49.5107 53.7466 47.612 53.0866 47.344C52.4266 47.0747 51.944 46.9347 51.4293 47.648C50.9173 48.3587 49.4547 49.9493 49.0147 50.4187C48.5693 50.892 48.1413 50.936 47.424 50.5427C46.7107 50.1507 44.3867 49.292 41.692 46.7013C39.596 44.688 38.2213 42.244 37.824 41.4973C37.4227 40.7507 37.8213 40.3693 38.1987 40.0213C38.54 39.704 38.9613 39.1947 39.3427 38.7827C39.7213 38.3707 39.8547 38.072 40.116 37.5933C40.3787 37.1173 40.272 36.6867 40.1027 36.3134C39.9347 35.9427 38.6093 32.2974 38.0573 30.8134C37.5027 29.3307 36.8867 29.5507 36.4613 29.5333C36.036 29.52 35.552 29.44 35.0653 29.42C34.5773 29.404 33.78 29.556 33.0853 30.26C32.3893 30.9653 30.4373 32.66 30.3027 36.2507C30.168 39.8413 32.6533 43.4094 33 43.908C33.3467 44.4094 37.7427 52.192 45.0493 55.3907C52.3587 58.5907 52.3973 57.616 53.7373 57.544C55.08 57.472 58.1213 55.9387 58.7947 54.2587C59.4667 52.58 59.52 51.1187 59.3493 50.8067C59.1773 50.496 58.6973 50.296 57.9827 49.904" fill="white"/>
</g>
<defs>
<filter id="filter0_d_3:61" x="10.9373" y="14.8227" width="66.2293" height="66.6813" filterUnits="userSpaceOnUse" color-interpolation-filters="sRGB">
<feFlood flood-opacity="0" result="BackgroundImageFix"/>
<feColorMatrix in="SourceAlpha" type="matrix" values="0 0 0 0 0 0 0 0 0 0 0 0 0 0 0 0 0 0 127 0" result="hardAlpha"/>
<feOffset dy="4"/>
<feGaussianBlur stdDeviation="2"/>
<feComposite in2="hardAlpha" operator="out"/>
<feColorMatrix type="matrix" values="0 0 0 0 0 0 0 0 0 0 0 0 0 0 0 0 0 0 0.25 0"/>
<feBlend mode="normal" in2="BackgroundImageFix" result="effect1_dropShadow_3:61"/>
<feBlend mode="normal" in="SourceGraphic" in2="effect1_dropShadow_3:61" result="shape"/>
</filter>
</defs>
</svg>
